<svg xmlns="http://www.w3.org/2000/svg" xmlns:xlink="http://www.w3.org/1999/xlink" width="658" zoomAndPan="magnify" viewBox="0 0 493.5 209.249992" height="279" preserveAspectRatio="xMidYMid meet" version="1.0"><defs><g/><clipPath id="22f23664f2"><path d="M 116.214844 0 L 377 0 L 377 96.40625 L 116.214844 96.40625 Z M 116.214844 0 " clip-rule="nonzero"/></clipPath><clipPath id="a43926cf77"><path d="M 0.464844 20 L 44 20 L 44 66 L 0.464844 66 Z M 0.464844 20 " clip-rule="nonzero"/></clipPath><clipPath id="022361fb9a"><rect x="0" width="246" y="0" height="85"/></clipPath></defs><g clip-path="url(#22f23664f2)"><path fill="#920909" d="M 372.394531 92.96875 L 370.363281 92.96875 L 370.363281 85.738281 L 368.40625 85.738281 L 368.40625 83.742188 L 368.179688 83.742188 L 368.179688 85.738281 L 367.847656 85.738281 L 367.847656 85.222656 L 366.070312 85.222656 L 366.070312 85.738281 L 365.035156 85.738281 L 365.035156 92.96875 L 362.816406 92.96875 L 362.816406 83.324219 L 361.667969 83.324219 L 361.667969 82.183594 L 361.480469 82.183594 L 361.480469 83.320312 L 360.632812 83.320312 L 360.632812 82.847656 L 356.59375 82.847656 L 356.59375 83.320312 L 356.113281 83.320312 L 356.113281 82.441406 L 355.746094 82.441406 L 355.746094 83.320312 L 354.378906 83.320312 L 354.378906 92.96875 L 351.980469 92.96875 L 351.980469 73.957031 L 349.796875 73.957031 L 349.796875 72.726562 L 350.660156 72.726562 L 350.660156 71.546875 L 348.476562 71.546875 L 348.476562 70.863281 L 347.113281 69.5 L 343.972656 69.5 L 343.972656 71.226562 L 343.335938 71.226562 L 343.335938 73.046875 L 343.703125 73.046875 L 343.703125 73.773438 L 342.976562 73.773438 L 342.976562 92.96875 L 341.203125 92.96875 L 341.203125 73.914062 L 340.054688 73.71875 L 340.054688 72.582031 L 339.019531 72.582031 L 339.019531 73.546875 L 338.132812 73.398438 L 338.132812 71.269531 L 337.945312 71.269531 L 337.945312 73.367188 L 336.667969 73.15625 L 336.667969 72.195312 L 334.613281 72.195312 L 334.613281 72.808594 L 333.296875 72.585938 L 333.296875 81.574219 L 332.132812 81.574219 L 332.132812 92.96875 L 330.652344 92.96875 L 330.652344 66.753906 L 329.902344 66.753906 L 329.902344 64.921875 L 329.488281 64.921875 L 329.488281 62.507812 L 328.402344 62.507812 L 328.402344 60.675781 L 327.902344 60.675781 L 327.570312 58.59375 L 328.007812 58.59375 L 328.007812 57.773438 L 326.898438 56.421875 L 325.789062 57.773438 L 325.789062 58.59375 L 326.222656 58.59375 L 325.890625 60.675781 L 325.390625 60.675781 L 325.390625 62.507812 L 324.308594 62.507812 L 324.308594 64.921875 L 323.890625 64.921875 L 323.890625 66.753906 L 323.136719 66.753906 L 323.136719 92.96875 L 321.800781 92.96875 L 321.800781 61.757812 L 321.21875 61.757812 L 321.21875 59.011719 L 320.269531 59.011719 L 319.714844 58.035156 L 316.976562 58.035156 L 316.417969 59.011719 L 315.394531 59.011719 L 315.394531 61.757812 L 313.8125 61.757812 L 313.8125 92.96875 L 311.234375 92.96875 L 311.234375 56.425781 L 310.570312 56.425781 L 310.570312 54.648438 L 311.234375 54.648438 L 309.238281 53.316406 L 308.679688 53.316406 L 308.679688 51.6875 L 308.273438 51.6875 L 308.273438 53.316406 L 307.53125 53.316406 L 307.53125 50.351562 L 307.125 50.351562 L 307.125 53.316406 L 306.609375 53.316406 L 306.609375 46.433594 L 306.3125 46.433594 L 306.3125 53.316406 L 304.351562 53.316406 L 302.355469 54.648438 L 303.023438 54.648438 L 303.023438 56.425781 L 302.355469 56.425781 L 302.355469 92.96875 L 299.125 92.96875 L 299.125 71.683594 L 296.625 70.136719 L 295.84375 70.136719 L 295.84375 67.804688 L 295.429688 67.804688 L 295.429688 70.136719 L 294.710938 70.136719 L 294.121094 70.726562 L 293.53125 70.726562 L 293.53125 69.5 L 292.183594 69.5 L 292.183594 70.726562 L 291.546875 70.726562 L 291.546875 73.007812 L 290.515625 73.007812 L 290.515625 71.277344 L 290.265625 71.277344 L 290.265625 73.007812 L 289.777344 73.007812 C 288.230469 73.007812 287.9375 74.40625 287.9375 74.40625 L 287.9375 92.96875 L 286.097656 92.96875 L 286.097656 77.1875 L 284.210938 76.023438 L 283.847656 76.023438 L 283.847656 75.242188 L 283.097656 75.242188 L 283.097656 76.023438 L 282.765625 76.023438 L 282.324219 76.464844 L 281.183594 76.464844 L 281.183594 73.195312 L 280.851562 73.195312 L 280.851562 76.464844 L 280.378906 76.464844 L 280.378906 78.1875 L 279.046875 78.1875 C 277.882812 78.1875 277.660156 79.242188 277.660156 79.242188 L 277.660156 92.96875 L 275.234375 92.96875 L 275.234375 70.136719 L 271.460938 70.136719 L 271.460938 67.800781 L 269.273438 67.800781 L 269.273438 67.265625 L 267.9375 67.265625 L 267.9375 67.800781 L 266.941406 67.800781 L 266.941406 64.28125 L 266.273438 64.28125 L 266.273438 67.800781 L 264.9375 67.800781 L 264.9375 66.78125 L 258.109375 66.78125 L 258.109375 67.800781 L 256.523438 67.800781 L 256.523438 92.964844 L 252.019531 92.964844 C 251.171875 86.421875 248.25 62.09375 248.25 38.867188 C 248.25 38.867188 250.070312 39.363281 250.070312 37.042969 L 250.070312 34.71875 C 250.070312 34.71875 249.929688 32.96875 248.25 32.96875 L 247.144531 31.21875 L 247.144531 19.5625 L 247.644531 19.5625 L 247.644531 18.476562 L 247.144531 18.476562 L 246.726562 10.566406 L 246.726562 0 L 245.949219 0 L 245.949219 10.578125 L 245.53125 18.488281 L 245.03125 18.488281 L 245.03125 19.570312 L 245.53125 19.570312 L 245.53125 31.226562 L 244.429688 32.980469 C 242.742188 32.980469 242.605469 34.730469 242.605469 34.730469 L 242.605469 37.050781 C 242.605469 39.375 244.429688 38.875 244.429688 38.875 C 244.429688 62.109375 241.503906 86.4375 240.65625 92.972656 L 237.039062 92.972656 L 237.039062 87.511719 L 236.207031 87.511719 L 236.207031 88.34375 L 235.371094 88.34375 C 235.371094 88.34375 232.292969 79.601562 216.472656 79.601562 C 200.652344 79.601562 197.570312 88.34375 197.570312 88.34375 L 196.738281 88.34375 L 196.738281 87.511719 L 195.902344 87.511719 L 195.902344 92.972656 L 193.292969 92.972656 L 193.292969 76.953125 L 192.425781 76.742188 L 192.425781 75.859375 L 191.148438 75.859375 L 191.148438 76.433594 L 190.507812 76.277344 L 190.507812 74.664062 L 190.230469 74.664062 L 190.230469 76.207031 L 189.460938 76.023438 L 189.460938 67.90625 L 188.296875 67.597656 L 188.296875 66.679688 L 186.816406 66.679688 L 186.816406 67.207031 L 186.175781 67.035156 L 186.175781 65.359375 L 185.953125 65.359375 L 185.953125 66.980469 L 185.148438 66.765625 L 185.148438 65.96875 L 184.289062 65.96875 L 184.289062 66.539062 L 183.300781 66.277344 L 183.300781 92.964844 L 180.054688 92.964844 L 180.054688 63.382812 L 179.125 63.382812 L 179.125 62.832031 L 177.488281 62.832031 L 177.488281 63.382812 L 176.679688 63.382812 L 176.679688 61.53125 L 176.542969 61.53125 L 176.542969 63.386719 L 175.40625 63.386719 L 175.40625 62.617188 L 174.488281 62.617188 L 174.488281 63.386719 L 173.636719 63.386719 L 173.636719 92.96875 L 171.390625 92.96875 L 171.390625 65.9375 L 170.074219 65.9375 L 167.496094 63.964844 L 166.957031 63.964844 L 166.957031 63.667969 L 166.515625 63.667969 L 166.515625 63.964844 L 166.125 63.964844 L 166.125 62.617188 L 165.933594 62.617188 L 165.933594 63.964844 L 165.414062 63.964844 L 165.414062 65.820312 L 164.414062 65.820312 L 164.414062 79.035156 L 163.496094 79.035156 L 163.496094 92.96875 L 161.238281 92.96875 L 161.238281 64.996094 L 159.796875 64.996094 L 159.796875 60.589844 L 158.355469 60.589844 L 158.355469 59.121094 L 156.855469 59.121094 L 156.855469 58.195312 L 155.019531 58.195312 L 155.019531 59.121094 L 153.519531 59.121094 L 153.519531 60.589844 L 152.078125 60.589844 L 152.078125 64.996094 L 150.636719 64.996094 L 150.636719 92.96875 L 148.984375 92.96875 L 148.984375 87.632812 L 147.242188 84.835938 L 147.242188 83.636719 L 146.070312 83.636719 L 146.070312 82.921875 L 145.777344 82.921875 L 145.777344 83.636719 L 145.292969 83.636719 L 145.292969 81.457031 L 145.101562 81.457031 L 145.101562 83.636719 L 144.582031 83.636719 L 144.582031 82.921875 L 142.164062 82.921875 L 142.164062 83.636719 L 141.148438 83.636719 L 141.148438 84.835938 L 139.410156 87.632812 L 139.410156 92.96875 L 137.945312 92.96875 L 137.945312 83.320312 L 136.625 83.320312 L 136.625 81.8125 L 136.480469 81.8125 L 136.480469 83.320312 L 134.59375 83.320312 L 134.59375 81.613281 L 134.355469 81.613281 L 134.355469 83.320312 L 133.453125 83.320312 L 133.453125 82.835938 L 132.40625 82.835938 L 132.40625 83.320312 L 131.761719 83.320312 L 131.761719 85.894531 L 129.183594 85.894531 L 129.183594 84.121094 L 128.347656 84.121094 L 128.347656 83.191406 L 127.914062 83.191406 L 127.914062 84.121094 L 127.398438 84.121094 L 127.398438 83.722656 L 126.570312 83.722656 L 126.570312 84.121094 L 126.105469 84.121094 L 126.105469 82.964844 L 125.960938 82.964844 L 125.960938 84.121094 L 125.054688 84.121094 L 125.054688 85.71875 L 122.542969 85.71875 L 122.542969 92.96875 L 120.511719 92.96875 C 118.367188 92.96875 116.589844 94.441406 116.269531 96.371094 L 376.636719 96.371094 C 376.316406 94.441406 374.539062 92.96875 372.394531 92.96875 Z M 372.394531 92.96875 " fill-opacity="1" fill-rule="nonzero"/></g><g transform="matrix(1, 0, 0, 1, 125, 101)"><g clip-path="url(#022361fb9a)"><g clip-path="url(#a43926cf77)"><g fill="#000000" fill-opacity="1"><g transform="translate(0.672625, 64.929287)"><g><path d="M 38.609375 -17.5625 C 38.609375 -11.601562 37.203125 -7.046875 34.390625 -3.890625 C 31.578125 -0.734375 27.40625 0.84375 21.875 0.84375 C 16.300781 0.84375 11.925781 -0.675781 8.75 -3.71875 C 5.570312 -6.769531 3.984375 -11.171875 3.984375 -16.921875 L 3.984375 -37.640625 C 3.984375 -38.796875 3.679688 -39.617188 3.078125 -40.109375 C 2.484375 -40.609375 1.457031 -40.859375 0 -40.859375 C 0 -42.484375 0.492188 -43.832031 1.484375 -44.90625 L 17.5625 -44.90625 C 18.550781 -43.832031 19.046875 -42.484375 19.046875 -40.859375 C 17.585938 -40.859375 16.554688 -40.609375 15.953125 -40.109375 C 15.359375 -39.617188 15.0625 -38.796875 15.0625 -37.640625 L 15.0625 -15.578125 C 15.0625 -12.484375 15.710938 -10.003906 17.015625 -8.140625 C 18.328125 -6.273438 20.332031 -5.34375 23.03125 -5.34375 C 25.738281 -5.34375 27.703125 -6.1875 28.921875 -7.875 C 30.140625 -9.570312 30.75 -11.796875 30.75 -14.546875 L 30.75 -37.640625 C 30.75 -38.796875 30.394531 -39.617188 29.6875 -40.109375 C 28.988281 -40.609375 27.820312 -40.859375 26.1875 -40.859375 C 26.1875 -42.578125 26.660156 -43.925781 27.609375 -44.90625 L 41.765625 -44.90625 C 42.703125 -43.832031 43.171875 -42.484375 43.171875 -40.859375 C 41.546875 -40.859375 40.378906 -40.609375 39.671875 -40.109375 C 38.960938 -39.617188 38.609375 -38.796875 38.609375 -37.640625 Z M 38.609375 -17.5625 "/></g></g></g></g><g fill="#000000" fill-opacity="1"><g transform="translate(43.84662, 64.929287)"><g><path d="M 38.34375 -45.6875 C 39.03125 -44.1875 39.566406 -41.460938 39.953125 -37.515625 C 40.335938 -33.566406 40.53125 -30.328125 40.53125 -27.796875 C 39.976562 -27.578125 39.109375 -27.40625 37.921875 -27.28125 C 36.742188 -27.15625 35.6875 -27.09375 34.75 -27.09375 C 34.488281 -30.519531 34.066406 -33.15625 33.484375 -35 C 32.910156 -36.84375 32.128906 -38.109375 31.140625 -38.796875 C 30.148438 -39.484375 28.863281 -39.828125 27.28125 -39.828125 L 26.1875 -39.828125 L 26.1875 -7.59375 C 26.1875 -6.394531 26.742188 -5.515625 27.859375 -4.953125 C 28.972656 -4.398438 30.691406 -4.125 33.015625 -4.125 C 33.015625 -3.34375 32.882812 -2.585938 32.625 -1.859375 C 32.363281 -1.128906 32 -0.507812 31.53125 0 L 9.65625 0 C 9.226562 -0.507812 8.882812 -1.128906 8.625 -1.859375 C 8.363281 -2.585938 8.234375 -3.34375 8.234375 -4.125 C 13.078125 -4.125 15.5 -5.28125 15.5 -7.59375 L 15.5 -39.828125 L 14.09375 -39.828125 C 9.582031 -39.828125 6.988281 -35.582031 6.3125 -27.09375 C 3.300781 -27.21875 1.367188 -27.453125 0.515625 -27.796875 C 0.515625 -30.328125 0.707031 -33.566406 1.09375 -37.515625 C 1.476562 -41.460938 2.015625 -44.1875 2.703125 -45.6875 C 4.671875 -45.6875 6.429688 -45.425781 7.984375 -44.90625 L 33.078125 -44.90625 C 34.703125 -45.425781 36.457031 -45.6875 38.34375 -45.6875 Z M 38.34375 -45.6875 "/></g></g></g><g fill="#000000" fill-opacity="1"><g transform="translate(84.897297, 64.929287)"><g><path d="M 38.546875 -13.578125 C 38.546875 -12.160156 38.203125 -9.640625 37.515625 -6.015625 C 36.828125 -2.390625 36.203125 -0.0390625 35.640625 1.03125 C 34.953125 0.851562 34.050781 0.507812 32.9375 0 L 3.15625 0 C 2.164062 -1.289062 1.671875 -2.640625 1.671875 -4.046875 C 3.128906 -4.046875 4.203125 -4.300781 4.890625 -4.8125 C 5.578125 -5.332031 5.921875 -6.195312 5.921875 -7.40625 L 5.921875 -37.578125 C 5.921875 -38.734375 5.585938 -39.566406 4.921875 -40.078125 C 4.253906 -40.597656 3.191406 -40.859375 1.734375 -40.859375 C 1.734375 -42.273438 2.226562 -43.625 3.21875 -44.90625 L 28.1875 -44.90625 C 28.914062 -45.25 29.757812 -45.515625 30.71875 -45.703125 C 31.6875 -45.898438 32.578125 -46 33.390625 -46 C 34.035156 -44.757812 34.734375 -43.046875 35.484375 -40.859375 C 36.234375 -38.671875 36.609375 -37.082031 36.609375 -36.09375 C 36.097656 -35.625 35.21875 -35.128906 33.96875 -34.609375 C 32.726562 -34.097656 31.65625 -33.757812 30.75 -33.59375 C 30.195312 -35.175781 29.316406 -36.546875 28.109375 -37.703125 C 26.910156 -38.859375 25.519531 -39.4375 23.9375 -39.4375 L 16.671875 -39.4375 L 16.671875 -25.859375 L 21.296875 -25.859375 C 24.085938 -25.859375 25.484375 -27.425781 25.484375 -30.5625 C 27.410156 -30.5625 29.144531 -30.113281 30.6875 -29.21875 L 30.6875 -17.25 C 30 -16.8125 29.203125 -16.472656 28.296875 -16.234375 C 27.398438 -16.003906 26.484375 -15.890625 25.546875 -15.890625 C 25.546875 -17.523438 25.160156 -18.75 24.390625 -19.5625 C 23.617188 -20.375 22.609375 -20.78125 21.359375 -20.78125 L 16.671875 -20.78125 L 16.671875 -5.65625 L 24.453125 -5.65625 C 26.253906 -5.65625 27.816406 -6.414062 29.140625 -7.9375 C 30.472656 -9.46875 31.3125 -11.347656 31.65625 -13.578125 Z M 38.546875 -13.578125 "/></g></g></g><g fill="#000000" fill-opacity="1"><g transform="translate(124.468095, 64.929287)"><g><path d="M 8.875 -15.828125 C 9.5625 -12.222656 10.910156 -9.378906 12.921875 -7.296875 C 14.941406 -5.222656 17.328125 -4.1875 20.078125 -4.1875 C 21.878906 -4.1875 23.207031 -4.695312 24.0625 -5.71875 C 24.914062 -6.75 25.34375 -7.890625 25.34375 -9.140625 C 25.34375 -10.984375 24.539062 -12.535156 22.9375 -13.796875 C 21.332031 -15.066406 19.023438 -16.429688 16.015625 -17.890625 C 11.984375 -19.859375 8.9375 -22.039062 6.875 -24.4375 C 4.820312 -26.84375 3.796875 -29.765625 3.796875 -33.203125 C 3.796875 -35.734375 4.425781 -37.929688 5.6875 -39.796875 C 6.957031 -41.660156 8.6875 -43.085938 10.875 -44.078125 C 13.0625 -45.066406 15.503906 -45.5625 18.203125 -45.5625 C 19.617188 -45.5625 21.148438 -45.421875 22.796875 -45.140625 C 24.453125 -44.859375 25.773438 -44.4375 26.765625 -43.875 L 32.234375 -45.5625 C 33.003906 -44.226562 33.492188 -42.390625 33.703125 -40.046875 C 33.921875 -37.710938 34.03125 -35.023438 34.03125 -31.984375 L 34.03125 -31.015625 L 28.703125 -31.015625 C 27.148438 -37.273438 24.125 -40.40625 19.625 -40.40625 C 17.90625 -40.40625 16.617188 -39.921875 15.765625 -38.953125 C 14.910156 -37.992188 14.484375 -36.71875 14.484375 -35.125 C 14.484375 -33.84375 14.820312 -32.726562 15.5 -31.78125 C 16.1875 -30.84375 17.054688 -30.039062 18.109375 -29.375 C 19.160156 -28.707031 20.566406 -27.945312 22.328125 -27.09375 C 25.023438 -25.757812 27.285156 -24.515625 29.109375 -23.359375 C 30.929688 -22.203125 32.507812 -20.664062 33.84375 -18.75 C 35.175781 -16.84375 35.84375 -14.582031 35.84375 -11.96875 C 35.84375 -9.5625 35.238281 -7.382812 34.03125 -5.4375 C 32.832031 -3.488281 31.082031 -1.929688 28.78125 -0.765625 C 26.488281 0.390625 23.820312 0.96875 20.78125 0.96875 C 17.3125 0.96875 13.859375 0.238281 10.421875 -1.21875 L 5.46875 0.96875 C 4.65625 -0.664062 3.945312 -3.207031 3.34375 -6.65625 C 2.738281 -10.113281 2.4375 -13.171875 2.4375 -15.828125 Z M 8.875 -15.828125 "/></g></g></g><g fill="#000000" fill-opacity="1"><g transform="translate(162.623351, 64.929287)"><g><path d="M 28.4375 -30.5625 C 28.050781 -33.4375 27.269531 -35.726562 26.09375 -37.4375 C 24.914062 -39.15625 23.40625 -40.015625 21.5625 -40.015625 C 18.9375 -40.015625 16.851562 -38.78125 15.3125 -36.3125 C 13.769531 -33.851562 13 -30.050781 13 -24.90625 C 13 -18.6875 14.195312 -14.140625 16.59375 -11.265625 C 19 -8.390625 22.113281 -6.953125 25.9375 -6.953125 C 27.78125 -6.953125 29.40625 -7.296875 30.8125 -7.984375 C 32.226562 -8.671875 33.238281 -9.484375 33.84375 -10.421875 C 34.351562 -10.035156 34.78125 -9.457031 35.125 -8.6875 C 35.46875 -7.914062 35.640625 -7.207031 35.640625 -6.5625 C 35.640625 -5.488281 35.09375 -4.375 34 -3.21875 C 32.90625 -2.0625 31.328125 -1.082031 29.265625 -0.28125 C 27.210938 0.507812 24.835938 0.90625 22.140625 0.90625 C 18.359375 0.90625 14.910156 0.0234375 11.796875 -1.734375 C 8.691406 -3.492188 6.21875 -6.15625 4.375 -9.71875 C 2.53125 -13.28125 1.609375 -17.59375 1.609375 -22.65625 C 1.609375 -27.582031 2.441406 -31.769531 4.109375 -35.21875 C 5.785156 -38.675781 8.132812 -41.273438 11.15625 -43.015625 C 14.1875 -44.753906 17.71875 -45.625 21.75 -45.625 C 22.6875 -45.625 23.753906 -45.492188 24.953125 -45.234375 C 26.160156 -44.972656 27.21875 -44.628906 28.125 -44.203125 C 28.757812 -44.503906 29.695312 -44.804688 30.9375 -45.109375 C 32.1875 -45.410156 33.15625 -45.582031 33.84375 -45.625 C 35.082031 -42.570312 35.703125 -37.550781 35.703125 -30.5625 Z M 28.4375 -30.5625 "/></g></g></g><g fill="#000000" fill-opacity="1"><g transform="translate(199.942237, 64.929287)"><g><path d="M 38.734375 -8.5 C 39.160156 -7.125 39.890625 -6.050781 40.921875 -5.28125 C 41.953125 -4.507812 43.046875 -4.125 44.203125 -4.125 C 44.203125 -3.34375 44.070312 -2.585938 43.8125 -1.859375 C 43.5625 -1.128906 43.195312 -0.507812 42.71875 0 L 25.28125 0 C 24.8125 -0.507812 24.445312 -1.128906 24.1875 -1.859375 C 23.9375 -2.585938 23.8125 -3.34375 23.8125 -4.125 C 26.25 -4.125 27.46875 -5.148438 27.46875 -7.203125 C 27.46875 -8.066406 27.320312 -9.078125 27.03125 -10.234375 L 26.640625 -11.578125 L 12.21875 -11.578125 L 11.84375 -10.234375 C 11.457031 -8.898438 11.265625 -7.957031 11.265625 -7.40625 C 11.265625 -5.21875 12.632812 -4.125 15.375 -4.125 C 15.375 -3.34375 15.242188 -2.585938 14.984375 -1.859375 C 14.734375 -1.128906 14.367188 -0.507812 13.890625 0 L -0.453125 0 C -0.921875 -0.507812 -1.285156 -1.128906 -1.546875 -1.859375 C -1.804688 -2.585938 -1.9375 -3.34375 -1.9375 -4.125 C -0.726562 -4.125 0.363281 -4.472656 1.34375 -5.171875 C 2.332031 -5.878906 3.0625 -6.921875 3.53125 -8.296875 L 14.09375 -39.4375 C 12.375 -40 10.207031 -40.28125 7.59375 -40.28125 C 7.59375 -42.125 8.109375 -43.664062 9.140625 -44.90625 L 26.765625 -44.90625 Z M 25.21875 -16.59375 L 20.65625 -32.5625 C 20.269531 -33.84375 19.773438 -34.9375 19.171875 -35.84375 L 13.640625 -16.59375 Z M 25.21875 -16.59375 "/></g></g></g></g></g></svg>